<svg width="26" height="25" viewBox="0 0 26 25" fill="none" xmlns="http://www.w3.org/2000/svg">
<path d="M7.95925 9.48591L5.25684 12.3149L12.6916 20.0979L26.0002 6.16591L23.2988 3.33691L12.6916 14.4389L7.95925 9.48591Z" fill="#4D4D4D"/>
<path d="M22 21C22 21.542 21.542 22 21 22H4C3.458 22 3 21.542 3 21V4C3 3.458 3.458 3 4 3H20.908L22.493 1.415C22.041 1.14654 21.5257 1.0033 21 1H4C2.35 1 1 2.35 1 4V21C1 22.65 2.35 24 4 24H21C22.65 24 24 22.65 24 21V11.171L22 13.171V21Z" fill="#4D4D4D"/>
<path d="M22 21C22 21.542 21.542 22 21 22H4C3.458 22 3 21.542 3 21V4C3 3.458 3.458 3 4 3H20.908L22.493 1.415C22.041 1.14654 21.5257 1.0033 21 1H4C2.35 1 1 2.35 1 4V21C1 22.65 2.35 24 4 24H21C22.65 24 24 22.65 24 21V11.171L22 13.171V21Z" stroke="black"/>
<path d="M22 21C22 21.542 21.542 22 21 22H4C3.458 22 3 21.542 3 21V4C3 3.458 3.458 3 4 3H20.908L22.493 1.415C22.041 1.14654 21.5257 1.0033 21 1H4C2.35 1 1 2.35 1 4V21C1 22.65 2.35 24 4 24H21C22.65 24 24 22.65 24 21V11.171L22 13.171V21Z" stroke="black" stroke-opacity="0.2"/>
</svg>
